<svg xmlns="http://www.w3.org/2000/svg" width="500" height="700" viewBox="0 0 500 700"><defs><linearGradient id="r"><stop stop-color="#361012"/><stop offset=".4" stop-color="#b65043"/><stop offset=".7" stop-color="#751b23"/><stop offset="1" stop-color="#240d12"/></linearGradient><linearGradient id="g"><stop stop-color="#7b603d"/><stop offset=".4" stop-color="#e3c791"/><stop offset="1" stop-color="#806037"/></linearGradient></defs><g stroke="#201c1c" stroke-width="5"><path fill="url(#r)" d="M174 180 105 200 45 360 70 470 105 442 110 338 130 315 145 590 215 620 250 570 290 620 360 590 375 315 395 338 400 442 435 470 455 360 395 200 326 180Z"/><path fill="url(#g)" d="m120 223 43-24 15 70-52 53-26-40Zm260 0-43-24-15 70 52 53 26-40Z"/><path fill="url(#r)" d="M175 40 213 20 290 25 325 65 318 160 280 202 216 194 181 150Z"/><path fill="url(#g)" d="m190 55 31 8 24-13 37 9 24-7-7 80-22 18-4 31-46-2-7-33-25-15Z"/><path fill="#d3ffff" stroke="#609ca2" d="m200 97 34 9-2 9-28-6Zm65 8 32-10-3 14-28 6Z"/><path fill="url(#g)" d="m170 236 72 27 81-27-16 85-66 24-62-25Z"/><path fill="#d4ffff" stroke="#90c4cc" d="m215 272 64 0-31 43Z"/><path fill="url(#g)" d="m180 375 59 23 72-23-5 48-67 22-55-21Z"/><path fill="none" stroke="#b47155" d="m159 455 80 34 95-35m-168 53 75 36 91-32"/></g></svg>
